<?xml version="1.0" encoding="utf-8"?>
<!-- Generator: Adobe Illustrator 21.0.2, SVG Export Plug-In . SVG Version: 6.00 Build 0)  -->
<svg version="1.1" id="Camada_1" xmlns="http://www.w3.org/2000/svg" xmlns:xlink="http://www.w3.org/1999/xlink" x="0px" y="0px"
	 viewBox="0 0 42.4 42" style="enable-background:new 0 0 42.4 42;" xml:space="preserve">
<style type="text/css">
	.st0{fill:#EB191E;}
	.st1{fill:#FFFFFF;}
</style>
<title>logo</title>
<desc>Created with Sketch.</desc>
<g id="Symbols">
	<g id="header" transform="translate(-514.000000, -82.000000)">
		<g id="logo" transform="translate(514.000000, 82.000000)">
			<g id="Group-2">
				<path id="Rectangle" class="st0" d="M3,0h36.4c1.7,0,3,1.3,3,3v36c0,1.7-1.3,3-3,3H3c-1.7,0-3-1.3-3-3V3C0,1.3,1.3,0,3,0z"/>
				<polyline id="Fill-12" class="st1" points="23.5,12.1 23.5,17.8 28.8,16 30.5,20.2 25.1,22.4 28.5,27.1 24.9,29.7 21.2,25 
					17.7,29.7 13.9,27.1 17.3,22.2 11.9,20.2 13.4,16 19,17.8 19,12.1 23.5,12.1 				"/>
			</g>
		</g>
	</g>
</g>
</svg>
